<svg width="300" height="300" viewBox="0 0 300 300" fill="none" xmlns="http://www.w3.org/2000/svg">
<path d="M300 150C300 67.1573 232.843 0 150 0C67.1573 0 0 67.1573 0 150C0 232.843 67.1573 300 150 300C232.843 300 300 232.843 300 150Z" fill="#6CBD4D"/>
<path d="M103.653 223.575C103.653 222.384 103.653 221.475 103.653 220.559C103.653 189.092 103.585 157.617 103.673 126.149C103.747 98.8751 127.64 75.3567 155.428 75.0269C156.152 75.0202 156.876 75.1077 158.039 75.175C158.039 76.252 158.039 77.2482 158.039 78.2444C158.039 109.921 158.093 141.597 158.019 173.28C157.958 200.09 133.376 223.864 105.993 223.757C105.371 223.743 104.742 223.656 103.653 223.575Z" fill="white"/>
<path d="M163.371 177.299C163.371 143.206 163.371 109.315 163.371 75C182.074 75.1481 197.017 82.2628 207.536 97.0847C219.955 114.585 220.733 133.143 210.052 151.734C199.398 170.272 178.665 178.302 163.371 177.299Z" fill="#C3E4B7"/>
<path d="M100.19 184.784C100.19 197.795 100.19 210.577 100.19 223.326C91.8426 224.645 82.3386 216.379 81.3848 207.158C80.113 194.914 87.9531 185.443 100.19 184.784Z" fill="#C2E4B6"/>
</svg>
